<?xml version="1.0" encoding="utf-8"?>
<!-- Generator: Adobe Illustrator 27.5.0, SVG Export Plug-In . SVG Version: 6.00 Build 0)  -->
<svg version="1.1" xmlns="http://www.w3.org/2000/svg" xmlns:xlink="http://www.w3.org/1999/xlink" x="0px" y="0px"
	 viewBox="0 0 500 500" style="enable-background:new 0 0 500 500;" xml:space="preserve">
<g id="Background_Complete">
	<g>
		<rect y="382.398" style="fill:#EBEBEB;" width="500" height="0.25"/>
		<rect x="416.779" y="398.494" style="fill:#EBEBEB;" width="33.122" height="0.25"/>
		<rect x="322.527" y="401.208" style="fill:#EBEBEB;" width="8.693" height="0.25"/>
		<rect x="396.586" y="389.208" style="fill:#EBEBEB;" width="19.192" height="0.25"/>
		<rect x="52.459" y="390.889" style="fill:#EBEBEB;" width="43.193" height="0.25"/>
		<rect x="104.556" y="390.889" style="fill:#EBEBEB;" width="6.333" height="0.25"/>
		<rect x="131.471" y="395.11" style="fill:#EBEBEB;" width="93.676" height="0.25"/>
		<path style="fill:#EBEBEB;" d="M237.014,337.8H43.915c-3.147,0-5.708-2.561-5.708-5.708V60.66c0-3.147,2.561-5.708,5.708-5.708
			h193.099c3.146,0,5.707,2.561,5.707,5.708v271.432C242.721,335.239,240.16,337.8,237.014,337.8z M43.915,55.203
			c-3.01,0-5.458,2.448-5.458,5.458v271.432c0,3.01,2.448,5.458,5.458,5.458h193.099c3.009,0,5.457-2.448,5.457-5.458V60.66
			c0-3.009-2.448-5.458-5.457-5.458H43.915z"/>
		<path style="fill:#EBEBEB;" d="M453.31,337.8H260.212c-3.147,0-5.707-2.561-5.707-5.708V60.66c0-3.147,2.561-5.708,5.707-5.708
			H453.31c3.148,0,5.708,2.561,5.708,5.708v271.432C459.019,335.239,456.458,337.8,453.31,337.8z M260.212,55.203
			c-3.009,0-5.457,2.448-5.457,5.458v271.432c0,3.01,2.448,5.458,5.457,5.458H453.31c3.01,0,5.458-2.448,5.458-5.458V60.66
			c0-3.009-2.448-5.458-5.458-5.458H260.212z"/>
	</g>
	<g>
		<g>
			<g>
				<path style="fill:#EBEBEB;" d="M418.587,350.257c0.152-1.024,3.652-25.172-3.359-33.509c-1.552-1.846-3.511-2.81-5.821-2.867
					c-14.152-0.332-16.089,11.035-16.106,11.151l1.669,0.258c0.065-0.407,1.743-10.027,14.396-9.721
					c1.831,0.045,3.327,0.786,4.57,2.265c6.527,7.761,3.017,31.931,2.981,32.174L418.587,350.257z"/>
			</g>
			<g>
				<path style="fill:#EBEBEB;" d="M419.443,349.156l1.688-0.053c-0.007-0.223-0.561-22.25,10.293-26.802
					c10.637-4.456,15.421,4.706,15.62,5.099l1.509-0.758c-0.055-0.11-5.67-10.977-17.782-5.898
					C418.848,325.743,419.413,348.202,419.443,349.156z"/>
			</g>
			<g>
				<path style="fill:#EBEBEB;" d="M419.394,350.887c0.001-0.352,0.102-35.19,6.895-45.38c6.522-9.783,17.043-5.178,17.487-4.975
					l0.698-1.538c-0.122-0.055-12.263-5.414-19.591,5.577c-7.074,10.612-7.177,44.861-7.178,46.314L419.394,350.887z"/>
			</g>
			<path style="fill:#E0E0E0;" d="M407.381,314.718c0,0,6.179,2.277,4.342,7.656c-1.837,5.378-21.377,14.229-21.377,14.229
				s-8.184-7.501-0.668-19.7C397.193,304.704,407.214,310.868,407.381,314.718z"/>
			<path style="fill:#E0E0E0;" d="M426.594,303.672c0,0-4.387-0.471-4.034-3.143c0.353-2.673,17.054-9.55,26.908,1.571
				c0,0-6.309,10.838-15.43,10.98C424.918,313.222,426.594,303.672,426.594,303.672z"/>
			<path style="fill:#E0E0E0;" d="M431.097,321.523c0,0-3.027-2.444,0.24-3.638c3.268-1.193,19.301-0.854,19.468,15.027
				c0,0-18.674,3.104-20.985-2.946C427.508,323.917,431.097,321.523,431.097,321.523z"/>
			<polygon style="fill:#EBEBEB;" points="404.06,382.611 433.038,382.611 436.164,350.886 400.935,350.886 			"/>
			
				<rect x="399.388" y="347.385" transform="matrix(-1 -1.224647e-16 1.224647e-16 -1 837.0991 701.7705)" style="fill:#E0E0E0;" width="38.324" height="7.001"/>
		</g>
		<g>
			<path style="fill:#EBEBEB;" d="M137.447,281.755c0,0-3.605-7.866,0.514-15.621c4.12-7.755,5.314-9.581,2.688-11.17
				c-2.626-1.589-3.83,6.203-3.83,6.203s-2.214-5.36-0.386-10.971c1.828-5.61,2.974-14.748,0.478-15.728
				c-2.496-0.98-0.477,11.398-2.643,15.618c0,0-1.818-4.697-2.118-9.203c-0.299-4.506,0.169-11.702-1.803-13.547
				c-1.971-1.846-3.234-0.569-1.297,9.376c1.938,9.944,1.923,18.027,1.923,18.027s-4.278-13.044-7.15-13.425
				c-2.871-0.38-2.868,3.844-0.41,7.508c2.458,3.664,7.198,10.229,7.976,13.606c0,0-4.696-9.817-8.921-6.809
				c-4.224,3.009,3.677,8.938,7.199,11.081c3.521,2.143,5.967,15.572,5.967,15.572L137.447,281.755z"/>
			<path style="fill:#F5F5F5;" d="M134.602,284.98c0,0,3.511-7.919-0.701-15.611c-4.212-7.692-5.428-9.502-2.821-11.129
				c2.606-1.628,3.904,6.146,3.904,6.146s2.149-5.394,0.254-10.976c-1.895-5.583-3.15-14.702-0.666-15.72
				c2.484-1.018,0.613,11.392,2.829,15.578c0,0,1.763-4.725,2.008-9.234c0.245-4.51-0.309-11.698,1.64-13.573
				c1.949-1.875,3.227-0.617,1.409,9.355c-1.818,9.973-1.706,18.055-1.706,18.055s4.122-13.106,6.988-13.53
				c2.867-0.423,2.913,3.801,0.5,7.502c-2.414,3.7-7.074,10.334-7.812,13.723c0,0,4.578-9.886,8.838-6.94
				c4.26,2.945-3.569,8.992-7.064,11.188c-3.495,2.194-5.779,15.66-5.779,15.66L134.602,284.98z"/>
			<g>
				<polygon style="fill:#E0E0E0;" points="150.794,279.335 121.792,279.335 124.139,300.089 148.446,300.089 				"/>
			</g>
		</g>
		<g>
			<polygon style="fill:#E0E0E0;" points="49.971,299.611 49.971,382.611 55.971,382.611 55.971,311.611 150.971,311.611 
				150.971,382.611 157.971,382.611 157.971,299.611 			"/>
			<polygon style="fill:#EBEBEB;" points="104.971,299.611 104.971,382.611 110.971,382.611 110.971,311.611 205.971,311.611 
				205.971,382.611 212.971,382.611 212.971,299.611 			"/>
		</g>
		<g>
			<g>
				<path style="fill:#E0E0E0;" d="M232.928,349.853l-2.969-0.428c0.535-3.739,3.659-10.812,11.66-10.812
					c9.476,0,14.192,5.471,14.664,10.894l-2.988,0.26c-0.354-4.059-4.1-8.153-11.676-8.153
					C234.237,341.614,232.977,349.518,232.928,349.853z"/>
			</g>
			<path style="fill:#EBEBEB;" d="M268.027,382.073h-48.725c-2.67,0-4.834-2.165-4.834-4.835v-25.194
				c0-2.67,2.164-4.834,4.834-4.834h48.725c2.67,0,4.834,2.164,4.834,4.834v25.194C272.862,379.908,270.697,382.073,268.027,382.073
				z"/>
			<g>
				<path style="fill:#E0E0E0;" d="M256.282,382.611c-41.247,0-43.295-28.309-43.311-28.595l1.681-3.279
					c0.064,1.052,3.317,28.874,41.629,28.874c15.767,0,29.383,0,30.76-3.02c1.211-2.655-4.701-9.46-14.18-20.371v-4.177
					c12.079,13.904,18.92,21.382,16.909,25.792C287.678,382.429,278.556,382.611,256.282,382.611z"/>
			</g>
		</g>
		<g>
			<path style="fill:#F5F5F5;" d="M52.105,72.736v29.556c0,1.661,1.346,2.766,3.007,2.766h99.815c0,0,11.539-5.382,10.719-12.899
				c-0.653-5.999-1.33-10.892-1.886-14.613c-0.684-4.533-4.563-7.817-9.14-7.817H55.112C53.451,69.729,52.105,71.075,52.105,72.736z
				"/>
			<path style="fill:#E6E6E6;enable-background:new    ;" d="M52.105,72.736v29.556c0,1.661,1.346,2.766,3.007,2.766h8.802
				c0,0,11.546-5.382,10.719-12.899c-0.654-5.999-1.331-10.892-1.887-14.613c-0.677-4.533-4.563-7.817-9.141-7.817h-8.494
				C53.451,69.729,52.105,71.075,52.105,72.736z"/>
			<path style="fill:#E0E0E0;" d="M163.355,94.535H76.159c0,0-2.881,6.39-7.767,9.021h85.19
				C153.583,103.555,162.602,99.421,163.355,94.535z"/>
			<polygon style="fill:#EBEBEB;" points="157.341,100.548 73.152,100.548 74.405,103.555 157.341,103.555 			"/>
			<polygon style="fill:#EBEBEB;" points="160.348,96.79 76.159,96.79 77.412,99.797 160.348,99.797 			"/>
			
				<rect x="79.166" y="92.28" transform="matrix(-1 -1.224647e-16 1.224647e-16 -1 160.4619 185.4365)" style="fill:#E0E0E0;" width="2.13" height="0.877"/>
			
				<rect x="82.175" y="92.28" transform="matrix(-1 -1.224647e-16 1.224647e-16 -1 166.4795 185.4365)" style="fill:#E0E0E0;" width="2.13" height="0.877"/>
		</g>
	</g>
</g>
<g id="Background_Simple" style="display:none;">
	<g style="display:inline;">
		<path style="fill:#407BFF;" d="M104.556,101.625c27.919-59.449,127.059-51.062,165.317-9.255
			c38.258,41.806,50.695,68.599,85.208,52.983c34.513-15.616,78.518-11.439,81.042,38.165S398.211,291.78,334.034,309.132
			c-64.177,17.352-64.161,78.759-149.1,66.368c-46.31-6.755-47.365-56.86-40.826-98.301
			C150.648,235.758,72.177,170.568,104.556,101.625z"/>
		<path style="opacity:0.9;fill:#FFFFFF;" d="M104.556,101.625c27.919-59.449,127.059-51.062,165.317-9.255
			c38.258,41.806,50.695,68.599,85.208,52.983c34.513-15.616,78.518-11.439,81.042,38.165S398.211,291.78,334.034,309.132
			c-64.177,17.352-64.161,78.759-149.1,66.368c-46.31-6.755-47.365-56.86-40.826-98.301
			C150.648,235.758,72.177,170.568,104.556,101.625z"/>
	</g>
</g>
<g id="Shadow_1_">
	<ellipse id="_x3C_Path_x3E__359_" style="fill:#F5F5F5;" cx="250" cy="416.238" rx="193.889" ry="11.323"/>
</g>
<g id="Screen">
	<g>
		<path style="fill:#407BFF;" d="M423.551,146.78v167.4c0,3.891-3.16,7.051-7.05,7.051h-236.98c-3.9,0-7.06-3.16-7.06-7.051v-167.4
			c0-3.9,3.16-7.06,7.06-7.06h236.98C420.392,139.72,423.551,142.88,423.551,146.78z"/>
		<path style="opacity:0.8;fill:#FFFFFF;enable-background:new    ;" d="M423.551,146.78v167.4c0,3.891-3.16,7.051-7.05,7.051
			h-236.98c-3.9,0-7.06-3.16-7.06-7.051v-167.4c0-3.9,3.16-7.06,7.06-7.06h236.98C420.392,139.72,423.551,142.88,423.551,146.78z"/>
		<path style="opacity:0.1;enable-background:new    ;" d="M423.551,146.78v13.01h-251.09v-13.01c0-3.9,3.16-7.06,7.06-7.06h236.98
			C420.392,139.72,423.551,142.88,423.551,146.78z"/>
		<g>
			<path style="opacity:0.4;fill:#407BFF;" d="M415.22,150.461c0,2.051-1.663,3.713-3.713,3.713c-2.051,0-3.713-1.663-3.713-3.713
				c0-2.051,1.662-3.714,3.713-3.714C413.557,146.747,415.22,148.41,415.22,150.461z"/>
			<path style="opacity:0.4;fill:#407BFF;" d="M401.72,150.461c0,2.051-1.663,3.713-3.713,3.713c-2.051,0-3.713-1.663-3.713-3.713
				c0-2.051,1.662-3.714,3.713-3.714C400.057,146.747,401.72,148.41,401.72,150.461z"/>
			<path style="opacity:0.4;fill:#407BFF;" d="M388.22,150.461c0,2.051-1.663,3.713-3.713,3.713c-2.051,0-3.713-1.663-3.713-3.713
				c0-2.051,1.662-3.714,3.713-3.714C386.557,146.747,388.22,148.41,388.22,150.461z"/>
		</g>
		<rect x="176.967" y="168.374" style="opacity:0.4;fill:#FFFFFF;enable-background:new    ;" width="241.983" height="13.714"/>
		<rect x="177.063" y="186.383" style="opacity:0.4;fill:#FFFFFF;enable-background:new    ;" width="241.888" height="118.659"/>
	</g>
</g>
<g id="Images">
	<g>
		<g>
			
				<rect x="370.229" y="86.78" transform="matrix(-1 -1.224647e-16 1.224647e-16 -1 791.8213 215.9995)" style="fill:#407BFF;" width="51.362" height="42.44"/>
			<path style="opacity:0.6;fill:#FFFFFF;enable-background:new    ;" d="M370.229,86.78v42.44h51.362V86.78H370.229z
				 M371.905,88.455h48.012v39.089h-48.012V88.455z"/>
			
				<rect x="370.229" y="86.78" transform="matrix(-1 -1.224647e-16 1.224647e-16 -1 791.8213 215.9995)" style="opacity:0.4;fill:#FFFFFF;enable-background:new    ;" width="51.362" height="42.44"/>
			<polygon style="opacity:0.3;fill:#FFFFFF;enable-background:new    ;" points="419.917,115.96 405.193,105.264 394.257,115.96 
				383.32,109.706 371.905,116.735 371.905,127.544 419.917,127.544 			"/>
			<circle style="opacity:0.6;fill:#FFFFFF;enable-background:new    ;" cx="388.751" cy="98.097" r="3.517"/>
		</g>
		<g>
			<rect x="294.639" y="291.666" style="fill:#407BFF;" width="62.123" height="51.331"/>
			<path style="opacity:0.6;fill:#FFFFFF;enable-background:new    ;" d="M294.639,291.666v51.331h62.123v-51.331H294.639z
				 M354.735,340.971h-58.07v-47.278h58.07V340.971z"/>
			<polygon style="opacity:0.2;fill:#FFFFFF;enable-background:new    ;" points="296.665,321.533 308.457,309.608 318.369,320.688 
				324.742,317.332 330.106,322.925 334.36,320.688 339.788,325.6 354.735,325.6 354.735,340.971 296.665,340.971 			"/>
			<path style="opacity:0.6;fill:#FFFFFF;enable-background:new    ;" d="M335.675,301.31c0.18,0.472,0.284,0.982,0.284,1.517
				c0,2.35-1.905,4.254-4.254,4.254c-0.46,0-0.901-0.075-1.316-0.21c0.612,1.6,2.156,2.737,3.971,2.737
				c2.349,0,4.254-1.905,4.254-4.254C338.614,303.464,337.38,301.864,335.675,301.31z"/>
			<path style="opacity:0.2;fill:#FFFFFF;enable-background:new    ;" d="M335.363,340.971h-38.7v-19.436l11.792-11.927
				l9.914,11.081l6.376-3.357l5.362,5.591l4.255-2.234l5.423,4.913c0,0-17.699,3-17.524,8.315
				C322.443,339.232,335.363,340.971,335.363,340.971z"/>
		</g>
		<g>
			<rect x="321.424" y="188.091" style="fill:#407BFF;" width="83.031" height="68.608"/>
			<path style="opacity:0.6;fill:#FFFFFF;enable-background:new    ;" d="M321.424,188.091v68.608h83.031v-68.608H321.424z
				 M401.747,253.99h-77.615V190.8h77.615V253.99z"/>
			<polygon style="opacity:0.2;fill:#FFFFFF;enable-background:new    ;" points="324.132,225.423 338.473,214.083 356.453,227.868 
				379.402,209.487 401.747,225.979 401.747,253.99 324.132,253.99 			"/>
			<rect x="324.132" y="236.087" style="opacity:0.2;fill:#FFFFFF;enable-background:new    ;" width="77.615" height="17.903"/>
			<polygon style="opacity:0.2;fill:#FFFFFF;enable-background:new    ;" points="357.873,236.087 373.355,253.99 387.802,253.99 
							"/>
			<circle style="opacity:0.6;fill:#FFFFFF;enable-background:new    ;" cx="355.33" cy="208.617" r="4.436"/>
		</g>
		<g>
			
				<rect x="157.333" y="171.887" transform="matrix(-1 -1.224647e-16 1.224647e-16 -1 368.5679 388.3125)" style="fill:#407BFF;" width="53.903" height="44.539"/>
			<path style="opacity:0.6;fill:#FFFFFF;enable-background:new    ;" d="M157.333,171.887v44.539h53.903v-44.539H157.333z
				 M159.091,173.645h50.386v41.022h-50.386V173.645z"/>
			
				<rect x="157.333" y="171.887" transform="matrix(-1 -1.224647e-16 1.224647e-16 -1 368.5679 388.3125)" style="opacity:0.4;fill:#FFFFFF;enable-background:new    ;" width="53.903" height="44.539"/>
			<polygon style="opacity:0.2;fill:#FFFFFF;enable-background:new    ;" points="209.477,196.122 200.167,188.76 188.495,197.71 
				173.597,185.777 159.091,196.483 159.091,214.667 209.477,214.667 			"/>
			<rect x="159.091" y="203.045" style="opacity:0.2;fill:#FFFFFF;enable-background:new    ;" width="50.386" height="11.623"/>
			<polygon style="opacity:0.2;fill:#FFFFFF;enable-background:new    ;" points="187.573,203.045 177.521,214.667 168.144,214.667 
							"/>
			<path style="opacity:0.6;fill:#FFFFFF;enable-background:new    ;" d="M186.345,185.211c0,1.59,1.289,2.88,2.879,2.88
				c1.59,0,2.88-1.289,2.88-2.88c0-1.59-1.29-2.88-2.88-2.88C187.634,182.331,186.345,183.621,186.345,185.211z"/>
		</g>
		<g>
			<rect x="218.446" y="98.06" style="fill:#407BFF;" width="122.624" height="101.323"/>
			<path style="opacity:0.6;fill:#FFFFFF;enable-background:new    ;" d="M218.446,98.06v101.323H341.07V98.06H218.446z
				 M337.071,195.383H222.446V102.06h114.624V195.383z"/>
			<polygon style="opacity:0.3;fill:#FFFFFF;enable-background:new    ;" points="222.446,167.728 257.598,142.19 283.708,167.728 
				309.818,152.795 337.071,169.577 337.071,195.383 222.446,195.383 			"/>
			<path style="opacity:0.6;fill:#FFFFFF;enable-background:new    ;" d="M305.249,125.079c0,4.637-3.76,8.396-8.397,8.396
				c-4.637,0-8.396-3.759-8.396-8.396c0-4.637,3.76-8.397,8.396-8.397C301.489,116.682,305.249,120.442,305.249,125.079z"/>
		</g>
	</g>
</g>
<g id="Button">
	<g>
		<path style="fill:#407BFF;" d="M195.987,295.421c-10.772,0-19.536-8.764-19.536-19.536c0-10.772,8.764-19.537,19.536-19.537
			h66.989c10.772,0,19.536,8.764,19.536,19.536c0,10.773-8.764,19.537-19.536,19.537H195.987z"/>
		<path style="opacity:0.6;fill:#FFFFFF;enable-background:new    ;" d="M195.987,295.421c-10.772,0-19.536-8.764-19.536-19.536
			c0-10.772,8.764-19.537,19.536-19.537h66.989c10.772,0,19.536,8.764,19.536,19.536c0,10.773-8.764,19.537-19.536,19.537H195.987z"
			/>
		<path style="fill:#407BFF;" d="M195.987,293.421c-9.669,0-17.536-7.866-17.536-17.536c0-9.67,7.867-17.537,17.536-17.537h66.989
			c9.669,0,17.536,7.866,17.536,17.536c0,9.67-7.867,17.537-17.536,17.537H195.987z"/>
		<path style="opacity:0.4;fill:#FFFFFF;enable-background:new    ;" d="M195.987,293.421c-9.669,0-17.536-7.866-17.536-17.536
			c0-9.67,7.867-17.537,17.536-17.537h66.989c9.669,0,17.536,7.866,17.536,17.536c0,9.67-7.867,17.537-17.536,17.537H195.987z"/>
		<path style="fill:#407BFF;" d="M262.976,260.348h-66.989c-8.581,0-15.536,6.956-15.536,15.536v0.001
			c0,8.58,6.956,15.536,15.536,15.536h66.989c8.58,0,15.536-6.956,15.536-15.536v-0.001
			C278.512,267.304,271.556,260.348,262.976,260.348z"/>
		<g>
			<path style="fill:#FFFFFF;" d="M196.835,270.992h1.943v6.813h4.21v1.583h-6.152V270.992z"/>
			<path style="fill:#FFFFFF;" d="M203.423,276.162c0-1.943,1.499-3.322,3.55-3.322c2.051,0,3.538,1.379,3.538,3.322
				c0,1.942-1.487,3.322-3.538,3.322C204.922,279.484,203.423,278.104,203.423,276.162z M208.617,276.162
				c0-1.116-0.708-1.787-1.644-1.787c-0.935,0-1.655,0.671-1.655,1.787c0,1.115,0.72,1.787,1.655,1.787
				C207.909,277.949,208.617,277.277,208.617,276.162z"/>
			<path style="fill:#FFFFFF;" d="M217.364,275.706v3.682h-1.751v-0.804c-0.348,0.588-1.019,0.9-1.967,0.9
				c-1.511,0-2.41-0.84-2.41-1.955c0-1.14,0.803-1.932,2.771-1.932h1.487c0-0.803-0.48-1.271-1.487-1.271
				c-0.684,0-1.391,0.228-1.859,0.6l-0.672-1.308c0.708-0.504,1.751-0.779,2.783-0.779
				C216.225,272.84,217.364,273.751,217.364,275.706z M215.493,277.349v-0.659h-1.283c-0.876,0-1.151,0.324-1.151,0.756
				c0,0.468,0.396,0.779,1.056,0.779C214.737,278.225,215.277,277.936,215.493,277.349z"/>
			<path style="fill:#FFFFFF;" d="M225.703,270.489v8.898h-1.787v-0.743c-0.468,0.564-1.151,0.84-2.015,0.84
				c-1.823,0-3.226-1.296-3.226-3.322c0-2.027,1.403-3.322,3.226-3.322c0.792,0,1.463,0.252,1.931,0.779v-3.13H225.703z
				 M223.868,276.162c0-1.116-0.72-1.787-1.643-1.787c-0.936,0-1.655,0.671-1.655,1.787c0,1.115,0.72,1.787,1.655,1.787
				C223.148,277.949,223.868,277.277,223.868,276.162z"/>
			<path style="fill:#FFFFFF;" d="M241.732,275.694v3.693h-1.871v-3.406c0-1.043-0.468-1.522-1.223-1.522
				c-0.84,0-1.427,0.539-1.427,1.69v3.238h-1.871v-3.406c0-1.043-0.444-1.522-1.223-1.522c-0.828,0-1.415,0.539-1.415,1.69v3.238
				h-1.871v-6.452h1.787v0.743c0.48-0.552,1.2-0.839,2.026-0.839c0.9,0,1.668,0.348,2.124,1.055
				c0.516-0.659,1.355-1.055,2.327-1.055C240.629,272.84,241.732,273.728,241.732,275.694z"/>
			<path style="fill:#FFFFFF;" d="M243.011,276.162c0-1.943,1.499-3.322,3.55-3.322c2.051,0,3.538,1.379,3.538,3.322
				c0,1.942-1.487,3.322-3.538,3.322C244.51,279.484,243.011,278.104,243.011,276.162z M248.204,276.162
				c0-1.116-0.708-1.787-1.644-1.787c-0.935,0-1.655,0.671-1.655,1.787c0,1.115,0.72,1.787,1.655,1.787
				C247.496,277.949,248.204,277.277,248.204,276.162z"/>
			<path style="fill:#FFFFFF;" d="M255.356,272.84v1.727c-0.156-0.012-0.276-0.023-0.42-0.023c-1.032,0-1.715,0.563-1.715,1.799
				v3.046h-1.871v-6.452h1.787v0.852C253.593,273.163,254.361,272.84,255.356,272.84z"/>
			<path style="fill:#FFFFFF;" d="M262.699,276.69h-4.881c0.18,0.804,0.864,1.295,1.847,1.295c0.684,0,1.175-0.203,1.619-0.623
				l0.996,1.079c-0.6,0.684-1.5,1.044-2.663,1.044c-2.231,0-3.682-1.403-3.682-3.322c0-1.932,1.475-3.322,3.442-3.322
				c1.895,0,3.358,1.271,3.358,3.346C262.735,276.33,262.711,276.533,262.699,276.69z M257.793,275.598h3.178
				c-0.132-0.815-0.744-1.343-1.583-1.343C258.537,274.255,257.925,274.771,257.793,275.598z"/>
		</g>
	</g>
</g>
<g id="Character">
	<g>
		<path style="fill:#E4897B;" d="M164.654,291.637l5.981-4.652c0,0,0.314-2.653,1.627-3.446s6.686-2.905,7.945-2.811
			c1.26,0.095,1.693,5.126,1.319,5.939c-0.373,0.813-8.191,3.111-8.191,3.111l-7.227,7.146L164.654,291.637z"/>
		<g>
			<path style="fill:#407BFF;" d="M119.932,308.199c9-2.244,23.076-4.657,28.575-7.498c5.499-2.842,14.356-9.522,16.05-9.897
				c0,0,3.306,2.284,4.363,4.201c0,0-7.817,10.184-19.254,15.602c-11.436,5.419-26.559,9.687-26.559,9.687L119.932,308.199z"/>
			<path style="opacity:0.5;fill:#FFFFFF;enable-background:new    ;" d="M168.919,295.005c0,0-7.814,10.185-19.257,15.602
				c-3.881,1.837-8.195,3.548-12.194,4.994c-7.767,2.828-14.361,4.692-14.361,4.692l-1.678-6.384l-1.497-5.71
				c8.996-2.246,23.078-4.658,28.571-7.498c5.5-2.841,14.355-9.522,16.056-9.898C164.56,290.804,167.866,293.088,168.919,295.005z"
				/>
		</g>
		<polygon style="fill:#407BFF;" points="164.557,290.805 167.102,288.809 171.266,292.376 168.919,295.006 		"/>
		<path style="opacity:0.2;enable-background:new    ;" d="M137.468,315.602c-7.767,2.828-14.361,4.692-14.361,4.692l-1.678-6.384
			C121.429,313.91,130.076,313.536,137.468,315.602z"/>
		<g>
			<path style="fill:#263238;" d="M122.61,363.308l4.814,14.635c14.827-3.453,53.357-10.704,59.194,5.603
				c7.254,20.266-45.169,36.421-74.184,37.41c-29.014,0.989-44.336-15.121-25.993-57.417L122.61,363.308z"/>
			<path style="opacity:0.2;enable-background:new    ;" d="M122.61,363.308l4.814,14.635c14.827-3.453,53.357-10.704,59.194,5.603
				c7.254,20.266-45.169,36.421-74.184,37.41c-29.014,0.989-44.336-15.121-25.993-57.417L122.61,363.308z"/>
		</g>
		<path style="fill:#263238;" d="M178.216,412.194c-0.066,0.041-0.151,0.037-0.213-0.011c-0.058-0.041-0.078-0.115-0.051-0.18
			c0.095-0.322,1.056-3.112,2.027-3.405c0.21-0.051,0.43,0.014,0.579,0.169c0.275,0.227,0.407,0.585,0.345,0.936
			c-0.157,0.521-0.476,0.98-0.909,1.31C179.442,411.467,178.847,411.862,178.216,412.194z M178.465,411.659
			c0.904-0.398,1.637-1.104,2.067-1.992c0.051-0.242-0.046-0.492-0.246-0.639c-0.055-0.067-0.146-0.094-0.228-0.066
			c-0.082,0.028-0.158,0.072-0.224,0.13C179.227,409.857,178.763,410.728,178.465,411.659z"/>
		<path style="fill:#263238;" d="M178.164,412.23c-0.065,0.024-0.139,0.003-0.181-0.053c-0.09-0.078-1.43-1.768-1.209-2.91
			c0.053-0.285,0.22-0.538,0.462-0.699c0.21-0.201,0.53-0.231,0.773-0.072c0.701,0.494,0.616,2.757,0.271,3.614l-0.024,0.086
			C178.23,412.216,178.197,412.228,178.164,412.23z M177.403,408.916c-0.121,0.106-0.203,0.248-0.232,0.406
			c-0.139,0.722,0.534,1.805,0.897,2.324c0.221-0.967,0.149-2.554-0.262-2.839c-0.045-0.023-0.129-0.09-0.336,0.056L177.403,408.916
			L177.403,408.916z"/>
		<path style="fill:#263238;" d="M127.212,416.949c0.039-0.068,0.115-0.105,0.192-0.094c0.069,0.008,0.124,0.063,0.131,0.133
			c0.074,0.328,0.583,3.234-0.126,3.961c-0.159,0.147-0.383,0.197-0.589,0.133c-0.35-0.065-0.639-0.314-0.754-0.652
			c-0.115-0.532-0.059-1.088,0.161-1.587C126.491,418.18,126.821,417.546,127.212,416.949z M127.253,417.538
			c-0.599,0.785-0.898,1.758-0.844,2.744c0.074,0.236,0.279,0.408,0.524,0.44c0.081,0.033,0.173,0.013,0.232-0.052
			c0.059-0.064,0.104-0.14,0.132-0.222C127.459,419.483,127.444,418.498,127.253,417.538z"/>
		<polygon style="fill:#EBB376;" points="146.202,402.268 134.267,406.52 128.534,408.56 130.004,414.834 135.556,413.651 
			149.115,410.762 		"/>
		<path style="fill:#407BFF;" d="M131.567,415.13l-1.005-7.401c-0.056-0.412-0.442-0.697-0.853-0.629l-3.651,0.608
			c0,0-4.97,0.467-5.957,1.741c-2.886,3.724-1.083,20.151,0.84,20.73c0.704,0.212,1.448-0.754,1.754-1.421
			c0.972-2.115,2.685-7.653,3.518-9.408c0.973-2.052,3.642-3.057,4.842-3.416C131.402,415.83,131.616,415.489,131.567,415.13z"/>
		<path style="fill:#263238;" d="M127.24,416.893c0.045-0.053,0.12-0.069,0.184-0.041c0.117,0.024,2.107,0.855,2.467,1.961
			c0.092,0.275,0.067,0.577-0.066,0.836c-0.085,0.277-0.352,0.459-0.642,0.438c-0.852-0.093-1.873-2.114-1.987-3.031l-0.02-0.087
			C127.189,416.938,127.212,416.911,127.24,416.893z M129.511,419.425c0.055-0.151,0.057-0.315,0.007-0.468
			c-0.228-0.699-1.341-1.322-1.91-1.6c0.274,0.952,1.105,2.307,1.603,2.357c0.051-0.001,0.156,0.016,0.267-0.212L129.511,419.425
			L129.511,419.425z"/>
		<polygon style="opacity:0.2;enable-background:new    ;" points="146.202,402.268 134.267,406.52 135.556,413.651 
			149.115,410.762 		"/>
		<g>
			<polygon style="fill:#407BFF;" points="137.67,414.724 141.104,414.971 138.806,403.16 134.911,405.315 			"/>
			<polygon style="opacity:0.6;fill:#FFFFFF;enable-background:new    ;" points="137.67,414.724 141.104,414.971 138.806,403.16 
				134.911,405.315 			"/>
		</g>
		<path style="opacity:0.2;enable-background:new    ;" d="M87.875,368.83l17.879,19.824c0,0,19.768-0.439,43.77,11.292
			c0,0,25.756-10.639,28.122-19.477c2.365-8.838-54.067-2.587-54.067-2.587L87.875,368.83z"/>
		<g>
			<path style="fill:#407BFF;" d="M84.233,320.346c3.185,9.584,3.334,31.229,2.208,43.193l36.169-0.232
				c6.222-23.854,4.12-40.6,3.587-46.189c-0.657-6.803-1.71-7.054-1.71-7.054s-7.373-0.725-13.798-0.677
				c-4.967,0.175-9.923,0.696-14.822,1.565c-3.644,0.607-7.246,1.418-10.796,2.431c-1.578,0.45-2.459,2.128-1.932,3.682
				C83.521,318.194,83.886,319.287,84.233,320.346z"/>
			<path style="opacity:0.6;fill:#FFFFFF;enable-background:new    ;" d="M122.61,363.31l-21.81,0.141l-14.36,0.09
				c0.83-8.81,0.97-22.85-0.29-33.47c-0.45-3.82-1.08-7.19-1.92-9.721c-0.34-1.06-0.71-2.159-1.09-3.279
				c-0.53-1.561,0.35-3.24,1.93-3.69c3.55-1.01,7.149-1.82,10.8-2.43c4.9-0.87,9.85-1.391,14.82-1.561
				c6.42-0.05,13.8,0.67,13.8,0.67s1.05,0.261,1.71,7.06C126.73,322.71,128.83,339.45,122.61,363.31z"/>
			<g>
				<path style="fill:#407BFF;" d="M111.832,328.412c14.97-4.707,15.267,21.89-0.301,25.582
					C95.963,357.686,97.583,332.892,111.832,328.412z"/>
				<path style="fill:#FFFFFF;" d="M120.304,329.92c2.709-0.058-9.819,21.568-21.291,23.547c0,0,8.115,1.23,17.67-9.627
					c9.555-10.856,8.604-14.186,7.874-15.032C123.737,327.855,120.304,329.92,120.304,329.92z"/>
				<polygon style="fill:#FFFFFF;" points="107.025,334.791 108.228,335.826 109.762,335.422 109.149,336.886 110.008,338.221 
					108.426,338.09 107.422,339.319 107.058,337.774 105.578,337.199 106.935,336.375 				"/>
			</g>
			<path style="opacity:0.2;enable-background:new    ;" d="M86.44,363.54c0.83-8.81,0.97-22.85-0.29-33.47
				c4.45,6.319,12.28,19.069,14.65,33.38L86.44,363.54z"/>
		</g>
		<path style="fill:#E4897B;" d="M110.008,376.494c0,0,9.028,5.871,10.063,6.336c1.034,0.464,7.73,2.102,9.646,1.993
			c1.915-0.108-0.647-6.102-2.292-6.881c-1.645-0.778-7.55,0.284-7.55,0.284l-6.985-5.255L110.008,376.494z"/>
		<g>
			<path style="fill:#263238;" d="M171.736,382.83v2.938c0,0.754-0.888,1.063-1.632,1.063h-58.707c-0.754,0-1.661-0.309-1.661-1.063
				v-2.938H171.736z"/>
			<path style="opacity:0.4;fill:#FFFFFF;enable-background:new    ;" d="M171.736,382.83v2.938c0,0.754-0.888,1.063-1.632,1.063
				h-58.707c-0.754,0-1.661-0.309-1.661-1.063v-2.938H171.736z"/>
			<path style="opacity:0.2;enable-background:new    ;" d="M171.736,382.83v2.938c0,0.754-0.888,1.063-1.632,1.063h-38.721
				c-0.753,0-1.648-0.309-1.648-1.063v-2.938H171.736z"/>
			<path style="fill:#263238;" d="M181.559,352.329l-6.988,31.699c-0.227,1.044-1.244,1.802-2.27,1.802h-38.176
				c-1.017,0-1.67-0.948-1.434-1.992l6.98-31.457c0.236-1.035,1.243-1.551,2.269-1.551h38.177
				C181.142,350.83,181.786,351.294,181.559,352.329z"/>
			<path style="opacity:0.4;fill:#FFFFFF;enable-background:new    ;" d="M181.559,352.329l-6.988,31.699
				c-0.227,1.044-1.244,1.802-2.27,1.802h-36.878c-1.025,0-1.67-0.948-1.443-1.992l6.989-31.457
				c0.227-1.035,1.243-1.551,2.269-1.551h36.878C181.142,350.83,181.786,351.294,181.559,352.329z"/>
			<path style="opacity:0.2;enable-background:new    ;" d="M162.736,368.44v0.01c0,2.714-2.91,4.919-5.043,4.919
				c-2.133,0-3.398-2.205-2.79-4.919c0.608-2.66,2.731-4.829,4.818-4.911c-0.608,2.714,0.695,4.911,2.819,4.911
				C162.586,368.45,162.736,368.45,162.736,368.44z"/>
		</g>
		<polygon style="fill:#EBB376;" points="154.492,415.849 166.994,417.906 172.998,418.896 174.749,412.693 169.319,411.042 
			156.055,407.006 		"/>
		<path style="fill:#407BFF;" d="M173.524,411.678l-2.704,6.963c-0.151,0.389,0.049,0.824,0.442,0.964l3.489,1.235
			c0,0,4.574,1.997,6.056,1.359c4.327-1.86,10.702-17.109,9.299-18.546c-0.513-0.525-1.632-0.04-2.222,0.395
			c-1.875,1.381-6.055,5.397-7.633,6.529c-1.845,1.324-4.667,0.912-5.891,0.646C174.008,411.146,173.655,411.341,173.524,411.678z"
			/>
		<polygon style="opacity:0.2;enable-background:new    ;" points="154.492,415.849 166.994,417.906 169.319,411.042 
			156.055,407.006 		"/>
		<path style="fill:#263238;" d="M167.166,409.746c0,0-50.974-28.655-68.562-27.84c-17.588,0.815-20.126,16.322-12.87,26.027
			c7.257,9.705,20.657,12.068,20.657,12.068s-9.123-12.894-7.804-16.521c1.318-3.627,6.48,1.434,6.48,1.434
			s32.068,10.357,60.12,12.733L167.166,409.746z"/>
		<g>
			<polygon style="fill:#407BFF;" points="167.987,408.958 165.102,407.02 161.395,418.406 165.847,418.406 			"/>
			<polygon style="opacity:0.6;fill:#FFFFFF;enable-background:new    ;" points="167.987,408.958 165.102,407.02 161.395,418.406 
				165.847,418.406 			"/>
		</g>
		<path style="fill:#E4897B;" d="M92.682,312.274c-1.847,2.623,20.783,6.857,20.783,6.857s13.239-8.59-2.223-9.936
			C108.091,308.922,95.594,308.137,92.682,312.274z"/>
		<path style="fill:#407BFF;" d="M114.201,324.011c0,0,12.192-10.058,5.881-16.076c-6.312-6.019-35.972-8.715-33.494,5.033
			c0,0,3.819-1.123,7.683,2.551C102.397,323.246,114.201,324.011,114.201,324.011z"/>
		<path style="opacity:0.2;enable-background:new    ;" d="M113.181,321.11c0,0,6.895-5.357,4.473-10.195
			c-2.423-4.838-16.796-10.111-27.082-3.453c0,0,2.736,1.216,6.816,4.7S113.181,321.11,113.181,321.11z"/>
		<path style="fill:#E4897B;" d="M97.387,312.162c0,0,3.313,4.727,15.794,8.948c0,0,5.561-7.068-2.894-10.298
			c0,0-1.76-0.55-2.14-3.351c-0.19-1.35-0.061-3.23,0.75-5.83c0.09-0.3,0.2-0.619,0.31-0.939l-10.28-6.43
			C98.927,294.263,102.547,307.292,97.387,312.162z"/>
		<path style="opacity:0.2;enable-background:new    ;" d="M101.237,297.992c0,0,0.55,7.35,6.91,9.47
			c-0.19-1.35-0.061-3.23,0.75-5.83C105.147,299.652,101.237,297.992,101.237,297.992z"/>
		<g>
			<path style="fill:none;stroke:#263238;stroke-width:0.5;stroke-linecap:round;stroke-linejoin:round;stroke-miterlimit:10;" d="
				M100.467,299.22c0,0-8.182,3.264-11.149-0.594"/>
			<path style="fill:none;stroke:#263238;stroke-width:0.5;stroke-linecap:round;stroke-linejoin:round;stroke-miterlimit:10;" d="
				M114.71,277.165c0,0,3.452-4.292-0.497-8.506c-3.986-4.253-9.843-0.62-9.843-0.62"/>
			<path style="fill:none;stroke:#263238;stroke-width:0.5;stroke-linecap:round;stroke-linejoin:round;stroke-miterlimit:10;" d="
				M114.301,277.474c0,0,5.479-3.672,1.72-7.825"/>
			<path style="fill:#263238;" d="M114.418,276.473c0,0,1.259-8.604-7.909-11.374c-9.169-2.768-18.634,6.343-18.634,6.343
				s-7.116,29.36,12.592,27.778C120.176,297.638,114.418,276.473,114.418,276.473z"/>
			<path style="fill:#E4897B;" d="M103.947,273.392c8.487-0.795,11.644,3.493,13.085,12.181c1.8,10.857,0.104,18.851-10.726,17.51
				C91.598,301.261,89.853,274.711,103.947,273.392z"/>
			<path style="fill:#DE5753;" d="M111.502,285.612c0,0,1.384,2.107,2.799,3.288c0,0-0.619,1.223-2.147,1.17L111.502,285.612z"/>
			<g>
				<path style="fill:#263238;" d="M106.242,285.404c0.081,0.696-0.229,1.304-0.692,1.358c-0.464,0.055-0.906-0.466-0.988-1.161
					c-0.081-0.695,0.229-1.304,0.692-1.358C105.719,284.19,106.16,284.709,106.242,285.404z"/>
				<path style="fill:#263238;" d="M105.065,284.3l1.443-0.771C106.509,283.529,105.904,284.891,105.065,284.3z"/>
			</g>
			<g>
				<path style="fill:#263238;" d="M114.873,284.245c0.082,0.696-0.228,1.304-0.692,1.358c-0.464,0.055-0.906-0.466-0.988-1.161
					c-0.081-0.695,0.229-1.304,0.692-1.357C114.35,283.03,114.791,283.55,114.873,284.245z"/>
				<path style="fill:#263238;" d="M113.696,283.141l1.443-0.771C115.14,282.37,114.536,283.731,113.696,283.141z"/>
			</g>
			
				<path style="fill:none;stroke:#263238;stroke-width:0.7247;stroke-linecap:round;stroke-linejoin:round;stroke-miterlimit:10;" d="
				M105.608,279.552c0,0-2.414-0.087-3.561,1.628"/>
			
				<path style="fill:none;stroke:#263238;stroke-width:0.7247;stroke-linecap:round;stroke-linejoin:round;stroke-miterlimit:10;" d="
				M111.743,278.615c0,0,1.447-0.695,3.448,0.381"/>
			<path style="fill:#263238;" d="M96.012,288.565c0,0,3.315-7.345,2.21-12.672c0,0,16.175-8.445,18.604,8.548
				c0,0,0.224-15.313-14.398-14.284c-14.598,1.027-12.56,22.367-4.43,28.021C97.998,298.178,93.965,293.155,96.012,288.565z"/>
			<path style="fill:#E4897B;" d="M97.565,290.227c-0.185-1.361-1.812-3.542-4.327-3.027c-2.603,0.533-3.351,6.05,3.313,6.735
				C97.507,294.033,97.951,293.066,97.565,290.227z"/>
			<g>
				<path style="fill:#263238;" d="M113.464,293.346c-0.466,1.011-0.928,2.906-0.928,2.906c-0.18-0.011-0.358-0.022-0.537-0.042
					c-2.427-0.209-3.484-1.107-3.92-2.041c-0.236-0.511-0.281-1.038-0.261-1.464c0.018-0.492,0.143-0.839,0.143-0.839
					c1.221,0.88,3.468,1.249,4.677,1.395C113.144,293.328,113.464,293.346,113.464,293.346z"/>
				<path style="fill:#FFFFFF;" d="M112.638,293.262l-0.295,0.85c-2.286-0.202-3.868-0.651-4.524-1.406
					c0.018-0.492,0.143-0.839,0.143-0.839C109.182,292.746,111.429,293.115,112.638,293.262z"/>
				<path style="fill:#DE5753;" d="M111.999,296.21c-2.427-0.209-3.484-1.107-3.92-2.041c0.825,0.104,1.807,0.319,2.649,0.767
					C111.374,295.274,111.758,295.745,111.999,296.21z"/>
			</g>
			<path style="fill:#263238;" d="M91.666,270.107c0,0,4.081-6.492-2.842-9.063c-6.923-2.571-13.648,6.342-9.495,12.517
				c4.154,6.176,10.78,3.913,10.78,3.913L91.666,270.107z"/>
			<path style="fill:none;stroke:#263238;stroke-width:0.5;stroke-linecap:round;stroke-linejoin:round;stroke-miterlimit:10;" d="
				M92.116,269.234c0,0,4.406-5.341,0.459-8.645"/>
			<path style="fill:none;stroke:#263238;stroke-width:0.5;stroke-linecap:round;stroke-linejoin:round;stroke-miterlimit:10;" d="
				M87.934,277.165c0,0-1.78,3.306-6.626,0.713c-4.846-2.592-4.549-10.778,0-11.284"/>
		</g>
		<g>
			<path style="opacity:0.2;enable-background:new    ;" d="M110.56,321.794c0,0.378-0.306,0.684-0.684,0.684
				c-0.378,0-0.684-0.306-0.684-0.684c0-0.378,0.306-0.684,0.684-0.684C110.254,321.11,110.56,321.416,110.56,321.794z"/>
			<path style="opacity:0.2;enable-background:new    ;" d="M117.442,319.814c0,0.378-0.307,0.684-0.684,0.684
				c-0.377,0-0.684-0.307-0.684-0.684c0-0.377,0.307-0.684,0.684-0.684C117.136,319.13,117.442,319.436,117.442,319.814z"/>
			<path style="fill:#263238;" d="M123.848,326.714c0,0.378-0.306,0.685-0.684,0.685c-0.378,0-0.684-0.307-0.684-0.685
				c0-0.377,0.306-0.684,0.684-0.684C123.541,326.03,123.848,326.337,123.848,326.714z"/>
			<path style="fill:#263238;" d="M109.003,330.233c0,0.378-0.306,0.685-0.684,0.685c-0.377,0-0.684-0.307-0.684-0.685
				c0-0.377,0.306-0.684,0.684-0.684C108.697,329.55,109.003,329.856,109.003,330.233z"/>
			<path style="fill:none;stroke:#263238;stroke-width:0.5;stroke-linecap:round;stroke-linejoin:round;stroke-miterlimit:10;" d="
				M116.758,319.989c0,0,2.89-0.1,3.324,3.164c0.435,3.265,2.907,3.561,2.907,3.561"/>
			<path style="fill:none;stroke:#263238;stroke-width:0.5;stroke-linecap:round;stroke-linejoin:round;stroke-miterlimit:10;" d="
				M110.039,321.77c0,0,1.886,1.78,0,3.659c-1.885,1.879-1.719,4.55-1.719,4.55"/>
		</g>
		<path style="fill:#407BFF;" d="M83.516,314.496c7.171-5.757,4.451,26.657,7.836,34.042c3.385,7.385,23.534,24.831,23.534,24.831
			l-4.326,4.857c0,0-24.599-13.564-28.054-22.67C78.125,344.01,78.224,318.743,83.516,314.496z"/>
		<path style="opacity:0.5;fill:#FFFFFF;enable-background:new    ;" d="M83.516,314.496c7.171-5.757,4.451,26.657,7.836,34.042
			c3.385,7.385,23.534,24.831,23.534,24.831l-4.326,4.857c0,0-24.599-13.564-28.054-22.67
			C78.125,344.01,78.224,318.743,83.516,314.496z"/>
		<polygon style="fill:#407BFF;" points="114.886,373.369 117.653,375.703 113.857,380.318 110.56,378.227 		"/>
	</g>
</g>
</svg>
